<svg width="36" height="36" viewBox="0 0 36 36" fill="none" xmlns="http://www.w3.org/2000/svg">
<circle cx="18" cy="18" r="18" fill="#CFCFCF"/>
<path fill-rule="evenodd" clip-rule="evenodd" d="M3.85815 29.1371C4.99861 26.2549 8.64092 23.9427 13.3554 23.0467C10.9126 21.5039 9.29014 18.7801 9.29014 15.6773C9.29014 14.497 9.52491 13.3716 9.95029 12.3451C9.93256 12.2544 9.92712 12.1585 9.93607 12.0588L10.3864 7.03669C10.4498 6.32956 11.2093 5.91188 11.8404 6.23707L14.597 7.65742C15.6423 7.21329 16.7924 6.9676 17.9998 6.9676C19.4237 6.9676 20.7677 7.30926 21.9544 7.91508L24.1661 6.7755C24.7972 6.45031 25.5567 6.868 25.6201 7.57513L26.0474 12.3404C26.474 13.3681 26.7095 14.4952 26.7095 15.6773C26.7095 18.8399 25.0238 21.6089 22.5018 23.1347C27.2693 24.144 30.8609 26.6165 31.732 29.638C28.4303 33.53 23.5036 36 18 36C12.2638 36 7.15433 33.3168 3.85815 29.1371Z" fill="#939393"/>
</svg>
