<?xml version="1.0" standalone="no"?>
<!DOCTYPE svg PUBLIC "-//W3C//DTD SVG 20010904//EN"
 "http://www.w3.org/TR/2001/REC-SVG-20010904/DTD/svg10.dtd">
<svg version="1.0" xmlns="http://www.w3.org/2000/svg"
 width="600.000000pt" height="600.000000pt" viewBox="0 0 600.000000 600.000000"
 preserveAspectRatio="xMidYMid meet">

<g transform="translate(0.000000,600.000000) scale(0.100000,-0.100000)"
fill="#000000" stroke="none">
<path d="M932 5500 c-109 -29 -187 -75 -272 -160 -87 -86 -132 -164 -160 -276
-20 -76 -20 -118 -20 -2064 0 -1946 0 -1988 20 -2064 28 -112 73 -190 160
-276 86 -87 164 -132 276 -160 76 -20 118 -20 2064 -20 1946 0 1988 0 2064 20
114 29 190 73 276 160 87 87 132 165 160 276 20 76 20 118 20 2064 0 1946 0
1988 -20 2064 -28 111 -73 189 -160 276 -86 87 -162 131 -276 160 -76 20 -117
20 -2068 19 -1927 0 -1993 -1 -2064 -19z m4081 -235 c104 -27 186 -97 234
-200 l28 -60 0 -2005 0 -2005 -28 -60 c-36 -78 -104 -146 -181 -182 l-61 -28
-2005 0 -2005 0 -61 28 c-77 36 -145 104 -181 182 l-28 60 0 2005 0 2005 28
60 c47 102 141 180 244 204 21 5 901 9 1998 10 1705 1 1968 -1 2018 -14z"/>
<path d="M1915 4079 l-80 -79 500 -500 500 -500 -498 -498 -497 -497 78 -79
c44 -43 82 -79 86 -80 3 0 229 221 502 493 l495 495 498 -498 497 -497 78 79
c44 44 78 83 77 88 -1 5 -222 230 -492 500 l-491 492 494 497 c271 273 495
498 497 500 1 2 -33 41 -78 87 l-81 83 -500 -500 -500 -500 -498 498 c-273
273 -499 497 -502 496 -3 0 -41 -36 -85 -80z"/>
</g>
</svg>
