<svg width="18" height="18" viewBox="0 0 18 18" fill="none" xmlns="http://www.w3.org/2000/svg">
<path fill-rule="evenodd" clip-rule="evenodd" d="M17.64 9.20454C17.64 8.56636 17.5827 7.95272 17.4764 7.36363H9V10.845H13.8436C13.635 11.97 13.0009 12.9232 12.0477 13.5614V15.8195H14.9564C16.6582 14.2527 17.64 11.9454 17.64 9.20454Z" fill="#4285F4"/>
<path fill-rule="evenodd" clip-rule="evenodd" d="M8.99988 17.9999C11.4299 17.9999 13.4672 17.194 14.9562 15.8194L12.0476 13.5612C11.2417 14.1012 10.2108 14.4203 8.99988 14.4203C6.65579 14.4203 4.6717 12.8371 3.96397 10.7099H0.957153V13.0417C2.43806 15.9831 5.4817 17.9999 8.99988 17.9999Z" fill="#34A853"/>
<path fill-rule="evenodd" clip-rule="evenodd" d="M3.96409 10.7101C3.78409 10.1701 3.68182 9.59324 3.68182 9.00005C3.68182 8.40687 3.78409 7.83005 3.96409 7.29005V4.95824H0.957273C0.347727 6.17324 0 7.54778 0 9.00005C0 10.4523 0.347727 11.8269 0.957273 13.0419L3.96409 10.7101Z" fill="#FBBC05"/>
<path fill-rule="evenodd" clip-rule="evenodd" d="M8.99988 3.57955C10.3212 3.57955 11.5076 4.03364 12.4403 4.92545L15.0217 2.34409C13.4631 0.891818 11.4258 0 8.99988 0C5.4817 0 2.43806 2.01682 0.957153 4.95818L3.96397 7.29C4.6717 5.16273 6.65579 3.57955 8.99988 3.57955Z" fill="#EA4335"/>
</svg>
