<svg width="28" height="26" viewBox="0 0 28 26" fill="none" xmlns="http://www.w3.org/2000/svg">
<path fill-rule="evenodd" clip-rule="evenodd" d="M13.8157 2.19761C13.7109 2.19771 13.6076 2.19787 13.5059 2.19803H13.5058C12.1414 2.2002 11.0552 2.20193 10.2123 2.03849C10.0328 2.00369 9.54201 1.85842 8.7685 1.61693C8.59423 1.56252 8.40989 1.50465 8.21819 1.44446L8.21798 1.4444C7.61482 1.25503 6.93889 1.04282 6.27504 0.843932C5.4045 0.583113 4.50962 0.331356 3.77853 0.174609C3.41803 0.0973147 3.04995 0.0325823 2.72322 0.00944663C2.56135 -0.00201575 2.36428 -0.00685227 2.16059 0.0173581C1.99134 0.0374761 1.6291 0.0967862 1.28751 0.352263C0.891956 0.648091 0.742305 1.04299 0.684919 1.22315C0.616747 1.43718 0.588026 1.6471 0.573634 1.81139C0.544444 2.14465 0.556071 2.52366 0.580758 2.88516C0.630973 3.62046 0.754081 4.52566 0.875744 5.36335C0.910129 5.6001 0.944301 5.83091 0.977244 6.05341C1.06494 6.64571 1.14392 7.17917 1.19496 7.60893C1.21699 7.79444 1.23069 7.93636 1.23809 8.03939C0.0045253 12.0345 -0.33566 15.3963 0.34589 18.1176C1.04952 20.9271 2.80616 22.9064 5.38602 24.1117C7.75826 25.2201 9.85411 25.6892 11.3749 25.8792C12.1351 25.9741 12.7523 25.9994 13.1898 26C13.3767 26.0002 13.531 25.9959 13.6498 25.9906C13.7858 25.9958 13.9658 26.0002 14.1849 26C14.6832 25.9995 15.3864 25.9751 16.234 25.8816C17.9246 25.6952 20.2184 25.231 22.614 24.1117C25.1938 22.9064 26.9505 20.9271 27.6541 18.1176C28.3357 15.3963 27.9955 12.0345 26.7619 8.03939C26.7693 7.93636 26.783 7.79444 26.805 7.60893C26.8561 7.17935 26.935 6.64622 27.0226 6.05422L27.0227 6.05363L27.0227 6.05347L27.0229 6.05225C27.0558 5.83011 27.0899 5.59969 27.1243 5.36335C27.2459 4.52566 27.369 3.62046 27.4192 2.88516C27.4439 2.52366 27.4556 2.14465 27.4264 1.81139C27.412 1.6471 27.3833 1.43718 27.3151 1.22315C27.2577 1.04299 27.108 0.648091 26.7125 0.352263C26.3709 0.0967862 26.0087 0.0374761 25.8394 0.0173581C25.6357 -0.00685227 25.4387 -0.00201575 25.2768 0.00944663C24.95 0.0325823 24.582 0.0973145 24.2215 0.174609C23.4904 0.331356 22.5955 0.583113 21.725 0.843932C21.0611 1.04283 20.3852 1.25503 19.782 1.4444C19.5903 1.5046 19.4058 1.5625 19.2315 1.61693C18.458 1.85842 17.9672 2.00369 17.7877 2.03849C16.9442 2.20205 15.7102 2.20016 14.3081 2.19802L14.3078 2.19802C14.2113 2.19787 14.114 2.19772 14.016 2.19762C14.0101 2.19755 14.0042 2.19752 13.9983 2.19752C13.9679 2.19752 13.9376 2.19753 13.9074 2.19754C13.8769 2.19753 13.8463 2.19752 13.8157 2.19752V2.19761ZM1.24463 8.21186C1.24473 8.21205 1.24496 8.20831 1.24506 8.20016C1.24459 8.20761 1.24454 8.21167 1.24463 8.21186ZM26.7554 8.21186C26.7553 8.212 26.755 8.20826 26.7549 8.20016C26.7554 8.20765 26.7555 8.21172 26.7554 8.21186ZM13.5067 7.59869C14.4442 7.59869 15.2041 8.35649 15.2041 9.29129V14.2889L20.7347 15.259C21.658 15.4209 22.2748 16.2985 22.1124 17.2192C21.95 18.1399 21.0699 18.7549 20.1466 18.593L13.2127 17.3768C12.4012 17.2345 11.8094 16.5315 11.8094 15.7098V9.29129C11.8094 8.35649 12.5693 7.59869 13.5067 7.59869Z" fill="#FAFAFA"/>
</svg>
