<svg width="25" height="24" viewBox="0 0 25 24" fill="none" xmlns="http://www.w3.org/2000/svg">
<path d="M6.04366 14C5.49414 14 5.02372 13.8042 4.6324 13.4125C4.24107 13.0208 4.04541 12.55 4.04541 12C4.04541 11.45 4.24107 10.9792 4.6324 10.5875C5.02372 10.1958 5.49414 10 6.04366 10C6.59318 10 7.0636 10.1958 7.45492 10.5875C7.84625 10.9792 8.04191 11.45 8.04191 12C8.04191 12.55 7.84625 13.0208 7.45492 13.4125C7.0636 13.8042 6.59318 14 6.04366 14ZM12.0384 14C11.4889 14 11.0185 13.8042 10.6271 13.4125C10.2358 13.0208 10.0402 12.55 10.0402 12C10.0402 11.45 10.2358 10.9792 10.6271 10.5875C11.0185 10.1958 11.4889 10 12.0384 10C12.5879 10 13.0584 10.1958 13.4497 10.5875C13.841 10.9792 14.0367 11.45 14.0367 12C14.0367 12.55 13.841 13.0208 13.4497 13.4125C13.0584 13.8042 12.5879 14 12.0384 14ZM18.0332 14C17.4836 14 17.0132 13.8042 16.6219 13.4125C16.2306 13.0208 16.0349 12.55 16.0349 12C16.0349 11.45 16.2306 10.9792 16.6219 10.5875C17.0132 10.1958 17.4836 10 18.0332 10C18.5827 10 19.0531 10.1958 19.4444 10.5875C19.8358 10.9792 20.0314 11.45 20.0314 12C20.0314 12.55 19.8358 13.0208 19.4444 13.4125C19.0531 13.8042 18.5827 14 18.0332 14Z" fill="#282828"/>
</svg>
