<svg width="18" height="18" viewBox="0 0 18 18" fill="none" xmlns="http://www.w3.org/2000/svg">
<path d="M6.75 15.75C5.5 15.75 4.4375 15.3125 3.5625 14.4375C2.6875 13.5625 2.25 12.5 2.25 11.25V6.75C2.25 5.5 2.6875 4.4375 3.5625 3.5625C4.4375 2.6875 5.5 2.25 6.75 2.25H11.25C12.5 2.25 13.5625 2.6875 14.4375 3.5625C15.3125 4.4375 15.75 5.5 15.75 6.75V11.25C15.75 12.5 15.3125 13.5625 14.4375 14.4375C13.5625 15.3125 12.5 15.75 11.25 15.75H6.75ZM8.25 12L12.75 7.5L11.7 6.45L8.25 9.9L6.6 8.25L5.55 9.3L8.25 12ZM6.75 14.25H11.25C12.075 14.25 12.7812 13.9563 13.3688 13.3688C13.9563 12.7812 14.25 12.075 14.25 11.25V6.75C14.25 5.925 13.9563 5.21875 13.3688 4.63125C12.7812 4.04375 12.075 3.75 11.25 3.75H6.75C5.925 3.75 5.21875 4.04375 4.63125 4.63125C4.04375 5.21875 3.75 5.925 3.75 6.75V11.25C3.75 12.075 4.04375 12.7812 4.63125 13.3688C5.21875 13.9563 5.925 14.25 6.75 14.25Z" fill="white"/>
</svg>
