<svg width="19" height="18" viewBox="0 0 19 18" fill="none" xmlns="http://www.w3.org/2000/svg">
<path d="M7.30661 12.375C6.78207 12.375 6.33871 12.1938 5.97652 11.8313C5.61434 11.4688 5.43325 11.025 5.43325 10.5C5.43325 9.975 5.61434 9.53125 5.97652 9.16875C6.33871 8.80625 6.78207 8.625 7.30661 8.625C7.83115 8.625 8.27451 8.80625 8.63669 9.16875C8.99888 9.53125 9.17997 9.975 9.17997 10.5C9.17997 11.025 8.99888 11.4688 8.63669 11.8313C8.27451 12.1938 7.83115 12.375 7.30661 12.375ZM4.30923 16.5C3.8971 16.5 3.54428 16.3531 3.25079 16.0594C2.95729 15.7656 2.81055 15.4125 2.81055 15V4.5C2.81055 4.0875 2.95729 3.73438 3.25079 3.44063C3.54428 3.14688 3.8971 3 4.30923 3H5.05858V1.5H6.55727V3H12.552V1.5H14.0507V3H14.8C15.2122 3 15.565 3.14688 15.8585 3.44063C16.152 3.73438 16.2987 4.0875 16.2987 4.5V15C16.2987 15.4125 16.152 15.7656 15.8585 16.0594C15.565 16.3531 15.2122 16.5 14.8 16.5H4.30923ZM4.30923 15H14.8V7.5H4.30923V15Z" fill="#282828"/>
</svg>
